<svg xmlns="http://www.w3.org/2000/svg" viewBox="0 0 1440 960" width="1440" height="960">
    
    <defs>
        <style>
            @import url('https://fonts.googleapis.com/css2?family=Poppins:wght@400;500;600;700;800&amp;display=swap');
            text { font-family: 'Poppins', sans-serif; }
        </style>
        <linearGradient id="modalGradient" x1="0%" y1="0%" x2="100%" y2="0%">
            <stop offset="0%" stop-color="#7c3aed"/>
            <stop offset="50%" stop-color="#6366f1"/>
            <stop offset="100%" stop-color="#10b981"/>
        </linearGradient>
        <linearGradient id="btnGradient" x1="0%" y1="0%" x2="100%" y2="0%">
            <stop offset="0%" stop-color="#8b5cf6"/>
            <stop offset="100%" stop-color="#7c3aed"/>
        </linearGradient>
    </defs>

    <rect width="1440" height="960" fill="#f1f5f3" />
    
    <!-- Desktop Sidebar (256px, #0f172a, border #1e293b) -->
    <rect x="0" y="0" width="256" height="100%" fill="#0f172a" />
    <line x1="256" y1="0" x2="256" y2="100%" stroke="#1e293b" stroke-width="1"/>
    
    <!-- Logo Brand Header -->
    <g transform="translate(20, 20)">
        <circle cx="16" cy="16" r="16" fill="#1b4332" />
        <path d="M16 8 L8 15 L11 15 L11 23 L21 23 L21 15 L24 15 Z" fill="#48bb78"/>
        <text x="40" y="16" fill="#ffffff" font-size="13" font-weight="700">Bayanihan Hub</text>
        <text x="40" y="28" fill="#48bb78" font-size="9" font-weight="700" letter-spacing="0.8">ADMIN PANEL</text>
    </g>
    <line x1="0" y1="64" x2="256" y2="64" stroke="#1e293b" stroke-width="1"/>
    
    <!-- Navigation Items -->
    
        <g transform="translate(12, 76)">
            <rect x="0" y="0" width="232" height="38" rx="8" fill="#27692a" />
            <g transform="translate(14, 12)" stroke="#ffffff" fill="#ffffff">
                <rect x="0" y="0" width="6" height="6" rx="1"/><rect x="8" y="0" width="6" height="6" rx="1"/><rect x="0" y="8" width="6" height="6" rx="1"/><rect x="8" y="8" width="6" height="6" rx="1"/>
            </g>
            <text x="38" y="24" fill="#ffffff" font-size="12" font-weight="700">Dashboard</text>
        </g>
        
        <g transform="translate(12, 118)">
            <rect x="0" y="0" width="232" height="38" rx="8" fill="transparent" />
            <g transform="translate(14, 12)" stroke="#94a3b8" fill="#94a3b8">
                <path d="M7 1 L13 3.5 V7 C13 10.5 7 13 7 13 C7 13 1 10.5 1 7 V3.5 Z" fill="none" stroke="currentColor" stroke-width="1.5"/><path d="M4.5 7 L6 8.5 L9.5 5" fill="none" stroke="currentColor" stroke-width="1.5"/>
            </g>
            <text x="38" y="24" fill="#94a3b8" font-size="12" font-weight="500">Identity & Approvals</text>
        </g>
        
        <g transform="translate(12, 160)">
            <rect x="0" y="0" width="232" height="38" rx="8" fill="transparent" />
            <g transform="translate(14, 12)" stroke="#94a3b8" fill="#94a3b8">
                <circle cx="6" cy="4" r="3" fill="none" stroke="currentColor" stroke-width="1.5"/><path d="M1 13 C1 10 3 9 6 9 C9 9 11 10 11 13" fill="none" stroke="currentColor" stroke-width="1.5"/><circle cx="11" cy="4" r="2" fill="none" stroke="currentColor" stroke-width="1.5"/><path d="M11 9 C12.5 9.5 13.5 10.5 13.5 12" fill="none" stroke="currentColor" stroke-width="1.5"/>
            </g>
            <text x="38" y="24" fill="#94a3b8" font-size="12" font-weight="500">Users</text>
        </g>
        
        <g transform="translate(12, 202)">
            <rect x="0" y="0" width="232" height="38" rx="8" fill="transparent" />
            <g transform="translate(14, 12)" stroke="#94a3b8" fill="#94a3b8">
                <path d="M7 1 L13 4 V10 L7 13 L1 10 V4 Z" fill="none" stroke="currentColor" stroke-width="1.5"/><line x1="1" y1="4" x2="7" y2="7" stroke="currentColor" stroke-width="1.5"/><line x1="13" y1="4" x2="7" y2="7" stroke="currentColor" stroke-width="1.5"/><line x1="7" y1="7" x2="7" y2="13" stroke="currentColor" stroke-width="1.5"/>
            </g>
            <text x="38" y="24" fill="#94a3b8" font-size="12" font-weight="500">Posts</text>
        </g>
        
        <g transform="translate(12, 244)">
            <rect x="0" y="0" width="232" height="38" rx="8" fill="transparent" />
            <g transform="translate(14, 12)" stroke="#94a3b8" fill="#94a3b8">
                <path d="M7 2.5 C6 -0.5 2 0.5 2 3.5 C2 6 7 9 7 9 C7 9 12 6 12 3.5 C12 0.5 8 -0.5 7 2.5 Z" fill="none" stroke="currentColor" stroke-width="1.5"/><path d="M1 10 L4 12 L7 11 L10 12 L13 10" fill="none" stroke="currentColor" stroke-width="1.5"/>
            </g>
            <text x="38" y="24" fill="#94a3b8" font-size="12" font-weight="500">Requests</text>
        </g>
        
        <g transform="translate(12, 286)">
            <rect x="0" y="0" width="232" height="38" rx="8" fill="transparent" />
            <g transform="translate(14, 12)" stroke="#94a3b8" fill="#94a3b8">
                <polygon points="4,1 10,1 13,4 13,10 10,13 4,13 1,10 1,4" fill="none" stroke="currentColor" stroke-width="1.5"/><line x1="7" y1="4" x2="7" y2="7" stroke="currentColor" stroke-width="1.5"/><circle cx="7" cy="10" r="0.75" fill="currentColor"/>
            </g>
            <text x="38" y="24" fill="#94a3b8" font-size="12" font-weight="500">Reports</text>
        </g>
        
        <g transform="translate(12, 328)">
            <rect x="0" y="0" width="232" height="38" rx="8" fill="transparent" />
            <g transform="translate(14, 12)" stroke="#94a3b8" fill="#94a3b8">
                <path d="M1 3 H5 L7 5 H13 V11 H1 Z" fill="none" stroke="currentColor" stroke-width="1.5"/><line x1="4" y1="11" x2="4" y2="14" stroke="currentColor" stroke-width="1.5"/><line x1="4" y1="14" x2="7" y2="14" stroke="currentColor" stroke-width="1.5"/>
            </g>
            <text x="38" y="24" fill="#94a3b8" font-size="12" font-weight="500">Categories</text>
        </g>
        
        <g transform="translate(12, 370)">
            <rect x="0" y="0" width="232" height="38" rx="8" fill="transparent" />
            <g transform="translate(14, 12)" stroke="#94a3b8" fill="#94a3b8">
                <polygon points="7,1 8.8,5.2 13.3,5.5 9.8,8.4 10.9,12.8 7,10.4 3.1,12.8 4.2,8.4 0.7,5.5 5.2,5.2" fill="none" stroke="currentColor" stroke-width="1.5"/>
            </g>
            <text x="38" y="24" fill="#94a3b8" font-size="12" font-weight="500">Ratings</text>
        </g>
        
        <g transform="translate(12, 412)">
            <rect x="0" y="0" width="232" height="38" rx="8" fill="transparent" />
            <g transform="translate(14, 12)" stroke="#94a3b8" fill="#94a3b8">
                <circle cx="7" cy="7" r="2.5" fill="none" stroke="currentColor" stroke-width="1.5"/><path d="M7 1 V2.5 M7 11.5 V13 M1 7 H2.5 M11.5 7 H13" stroke="currentColor" stroke-width="1.5"/>
            </g>
            <text x="38" y="24" fill="#94a3b8" font-size="12" font-weight="500">Settings</text>
        </g>
        
    
    <!-- Sidebar Footer -->
    <g transform="translate(0, 870)">
        <line x1="0" y1="0" x2="256" y2="0" stroke="#1e293b" stroke-width="1"/>
        <g transform="translate(16, 16)">
            <text x="24" y="16" fill="#94a3b8" font-size="12" font-weight="500">Back to Main App</text>
            <path d="M14 12 L8 12 M8 12 L11 9 M8 12 L11 15" fill="none" stroke="#94a3b8" stroke-width="1.5"/>
        </g>
        <g transform="translate(16, 52)">
            <text x="24" y="16" fill="#f87171" font-size="12" font-weight="600">Logout (Admin)</text>
            <path d="M8 12 H14 M14 12 L11 9 M14 12 L11 15 M8 7 V5 H3 V19 H8 V17" fill="none" stroke="#f87171" stroke-width="1.5"/>
        </g>
    </g>
    
    
    <g transform="translate(288, 32)">
        <text x="0" y="26" fill="#0f172a" font-size="28" font-weight="800">System Overview</text>
        <text x="0" y="48" fill="#64748b" font-size="13" font-weight="400">Bayanihan Hub live operational community stats, reports, and moderation queue.</text>
        
        <!-- 5 Metric Cards -->
        <g transform="translate(0, 72)">
            <!-- Total Users -->
            <g transform="translate(0, 0)">
                <rect x="0" y="0" width="212" height="92" rx="10" fill="#ffffff" stroke="#e2e8f0" stroke-width="1"/>
                <text x="18" y="30" fill="#64748b" font-size="12" font-weight="700">Total Users</text>
                <text x="18" y="68" fill="#0f172a" font-size="26" font-weight="800">2</text>
            </g>
            <!-- Total Posts -->
            <g transform="translate(226, 0)">
                <rect x="0" y="0" width="212" height="92" rx="10" fill="#ffffff" stroke="#e2e8f0" stroke-width="1"/>
                <text x="18" y="30" fill="#64748b" font-size="12" font-weight="700">Total Posts</text>
                <text x="18" y="68" fill="#0f172a" font-size="26" font-weight="800">10</text>
            </g>
            <!-- Active Requests -->
            <g transform="translate(452, 0)">
                <rect x="0" y="0" width="212" height="92" rx="10" fill="#ffffff" stroke="#e2e8f0" stroke-width="1"/>
                <text x="18" y="30" fill="#64748b" font-size="12" font-weight="700">Active Requests</text>
                <text x="18" y="68" fill="#0f172a" font-size="26" font-weight="800">3</text>
            </g>
            <!-- Pending Approvals (Yellow Border & Highlight) -->
            <g transform="translate(678, 0)">
                <rect x="0" y="0" width="212" height="92" rx="10" fill="#fefce8" stroke="#fde68a" stroke-width="1.5"/>
                <text x="18" y="30" fill="#92400e" font-size="12" font-weight="700">Pending Approvals</text>
                <text x="18" y="68" fill="#d97706" font-size="26" font-weight="800">0</text>
            </g>
            <!-- Completed Exchanges -->
            <g transform="translate(904, 0)">
                <rect x="0" y="0" width="212" height="92" rx="10" fill="#ffffff" stroke="#e2e8f0" stroke-width="1"/>
                <text x="18" y="30" fill="#64748b" font-size="12" font-weight="700">Completed Exchanges</text>
                <text x="18" y="68" fill="#16a34a" font-size="26" font-weight="800">3</text>
            </g>
        </g>
        
        <!-- Two Column Section -->
        <g transform="translate(0, 194)">
            <!-- Left Card: Reports & Moderation -->
            <g transform="translate(0, 0)">
                <rect x="0" y="0" width="544" height="256" rx="12" fill="#ffffff" stroke="#e2e8f0" stroke-width="1"/>
                
                <text x="24" y="38" fill="#0f172a" font-size="16" font-weight="800">Reports &amp; Moderation</text>
                <text x="24" y="58" fill="#64748b" font-size="12">Live moderation status and disciplinary queue</text>
                
                <!-- Review Reports Button -->
                <rect x="396" y="20" width="124" height="34" rx="6" fill="#ffffff" stroke="#e2e8f0" stroke-width="1"/>
                <text x="458" y="42" fill="#334155" font-size="12" font-weight="600" text-anchor="middle">Review Reports →</text>
                
                <!-- 4 Stat Boxes Grid -->
                <g transform="translate(24, 84)">
                    <!-- Pending -->
                    <rect x="0" y="0" width="116" height="74" rx="8" fill="#fefce8" stroke="#fef08a" stroke-width="1"/>
                    <text x="58" y="24" fill="#92400e" font-size="11" font-weight="700" text-anchor="middle">Pending</text>
                    <text x="58" y="54" fill="#d97706" font-size="22" font-weight="800" text-anchor="middle">0</text>
                    
                    <!-- Under Review -->
                    <rect x="126" y="0" width="116" height="74" rx="8" fill="#eff6ff" stroke="#bfdbfe" stroke-width="1"/>
                    <text x="184" y="24" fill="#1e40af" font-size="11" font-weight="700" text-anchor="middle">Under Review</text>
                    <text x="184" y="54" fill="#3b82f6" font-size="22" font-weight="800" text-anchor="middle">0</text>
                    
                    <!-- Resolved -->
                    <rect x="252" y="0" width="116" height="74" rx="8" fill="#f0fdf4" stroke="#bbf7d0" stroke-width="1"/>
                    <text x="310" y="24" fill="#166534" font-size="11" font-weight="700" text-anchor="middle">Resolved</text>
                    <text x="310" y="54" fill="#16a34a" font-size="22" font-weight="800" text-anchor="middle">0</text>
                    
                    <!-- High Priority -->
                    <rect x="378" y="0" width="116" height="74" rx="8" fill="#fef2f2" stroke="#fecaca" stroke-width="1"/>
                    <text x="436" y="24" fill="#991b1b" font-size="11" font-weight="700" text-anchor="middle">High Priority</text>
                    <text x="436" y="54" fill="#ef4444" font-size="22" font-weight="800" text-anchor="middle">0</text>
                </g>
                
                <line x1="24" y1="184" x2="520" y2="184" stroke="#f1f5f9" stroke-width="1"/>
                
                <!-- Footer link -->
                <text x="24" y="222" fill="#64748b" font-size="12">0 dismissed reports archived</text>
                <text x="520" y="222" fill="#27692a" font-size="12" font-weight="700" text-anchor="end">Open Full Moderation Console →</text>
            </g>
            
            <!-- Right Card: Recent Moderation & Activity -->
            <g transform="translate(572, 0)">
                <rect x="0" y="0" width="544" height="256" rx="12" fill="#ffffff" stroke="#e2e8f0" stroke-width="1"/>
                <text x="24" y="38" fill="#0f172a" font-size="16" font-weight="800">Recent Moderation &amp; Activity</text>
                
                <!-- Activity 1 -->
                <g transform="translate(24, 66)">
                    <rect x="0" y="0" width="496" height="44" rx="8" fill="#f8faf9"/>
                    <text x="14" y="27" fill="#334155" font-size="12" font-weight="500">Moderation report resolved by administrator</text>
                    <text x="482" y="27" fill="#94a3b8" font-size="11" text-anchor="end">Today</text>
                </g>
                
                <!-- Activity 2 -->
                <g transform="translate(24, 122)">
                    <rect x="0" y="0" width="496" height="44" rx="8" fill="#f8faf9"/>
                    <text x="14" y="27" fill="#334155" font-size="12" font-weight="500">User identity verification approved: Carlo M.</text>
                    <text x="482" y="27" fill="#94a3b8" font-size="11" text-anchor="end">1 hour ago</text>
                </g>
                
                <!-- Activity 3 -->
                <g transform="translate(24, 178)">
                    <rect x="0" y="0" width="496" height="44" rx="8" fill="#f8faf9"/>
                    <text x="14" y="27" fill="#334155" font-size="12" font-weight="500">Exchange marked completed (#exc-3)</text>
                    <text x="482" y="27" fill="#94a3b8" font-size="11" text-anchor="end">2 hours ago</text>
                </g>
            </g>
        </g>
    </g>
    
    <!-- Floating AI Assistant Button (Bottom Right) -->
    <g transform="translate(1230, 890)">
        <rect x="0" y="0" width="146" height="46" rx="23" fill="#1e4620" filter="drop-shadow(0 4px 12px rgba(0,0,0,0.15))"/>
        <g transform="translate(16, 15)">
            <rect x="0" y="0" width="16" height="13" rx="3" fill="none" stroke="#ffffff" stroke-width="1.5"/>
            <circle cx="5" cy="6" r="1" fill="#ffffff"/>
            <circle cx="11" cy="6" r="1" fill="#ffffff"/>
            <line x1="8" y1="-3" x2="8" y2="0" stroke="#ffffff" stroke-width="1.5"/>
        </g>
        <text x="44" y="28" fill="#ffffff" font-size="13" font-weight="700">AI Assistant</text>
        <path d="M126 18 L128 22 L132 24 L128 26 L126 30 L124 26 L120 24 L124 22 Z" fill="#a7f3d0"/>
    </g>
    
    
    <!-- Backdrop blur -->
    <rect width="1440" height="960" fill="#0f172a" opacity="0.72"/>
    
    <!-- Modal Container -->
    <g transform="translate(432, 140)">
        <rect x="0" y="0" width="576" height="680" rx="20" fill="#18181b" stroke="rgba(139, 92, 246, 0.35)" stroke-width="1" filter="drop-shadow(0 25px 50px rgba(0,0,0,0.7))"/>
        
        <!-- Top Gradient Bar -->
        <rect x="0" y="0" width="576" height="6" rx="3" fill="url(#modalGradient)"/>
        
        <!-- Header -->
        <g transform="translate(28, 30)">
            <rect x="0" y="0" width="40" height="40" rx="10" fill="#7c3aed" opacity="0.9"/>
            <path d="M20 12 L22 17 L27 19 L22 21 L20 26 L18 21 L13 19 L18 17 Z" fill="#ffffff"/>
            
            <rect x="54" y="0" width="94" height="20" rx="10" fill="rgba(139, 92, 246, 0.2)"/>
            <text x="101" y="14" fill="#c084fc" font-size="10" font-weight="700" text-anchor="middle" letter-spacing="0.5">BETA RELEASE</text>
            
            <text x="54" y="38" fill="#ffffff" font-size="20" font-weight="800">BayanihanHub Beta Testing</text>
            
            <!-- Close Button (X) -->
            <g transform="translate(480, 4)">
                <circle cx="16" cy="16" r="16" fill="rgba(255,255,255,0.08)"/>
                <path d="M11 11 L21 21 M21 11 L11 21" stroke="#94a3b8" stroke-width="1.5"/>
            </g>
        </g>
        
        <!-- Callout 1: Beta Notice Info Box -->
        <g transform="translate(28, 96)">
            <rect x="0" y="0" width="520" height="110" rx="12" fill="rgba(255,255,255,0.03)" stroke="rgba(139, 92, 246, 0.25)" stroke-width="1"/>
            <circle cx="28" cy="30" r="10" fill="none" stroke="#a78bfa" stroke-width="1.5"/>
            <text x="28" y="34" fill="#a78bfa" font-size="12" font-weight="700" text-anchor="middle">i</text>
            
            <text x="50" y="34" fill="#ffffff" font-size="14" font-weight="700">This deployment of BayanihanHub is currently for beta testing.</text>
            <text x="20" y="66" fill="#cbd5e1" font-size="13">You may encounter bugs, errors, unexpected behavior, or features that still</text>
            <text x="20" y="86" fill="#cbd5e1" font-size="13">need improvement while using the platform.</text>
        </g>
        
        <!-- Callout 2: Development Team Contact Box -->
        <g transform="translate(28, 222)">
            <rect x="0" y="0" width="520" height="150" rx="12" fill="rgba(255,255,255,0.03)" stroke="rgba(139, 92, 246, 0.25)" stroke-width="1"/>
            <circle cx="28" cy="28" r="8" fill="none" stroke="#a78bfa" stroke-width="1.5"/>
            <text x="48" y="32" fill="#ffffff" font-size="13" font-weight="600">If you encounter any bug or error, please report it to any member of the development team:</text>
            
            <!-- Team Pills -->
            <g transform="translate(18, 52)">
                <rect x="0" y="0" width="70" height="26" rx="6" fill="#4c1d95" opacity="0.7"/>
                <text x="35" y="17" fill="#ffffff" font-size="11" font-weight="700" text-anchor="middle">Jehosue</text>
                
                <rect x="78" y="0" width="88" height="26" rx="6" fill="#4c1d95" opacity="0.7"/>
                <text x="122" y="17" fill="#ffffff" font-size="11" font-weight="700" text-anchor="middle">Christopher</text>
                
                <rect x="174" y="0" width="68" height="26" rx="6" fill="#4c1d95" opacity="0.7"/>
                <text x="208" y="17" fill="#ffffff" font-size="11" font-weight="700" text-anchor="middle">Laurice</text>
                
                <rect x="250" y="0" width="60" height="26" rx="6" fill="#4c1d95" opacity="0.7"/>
                <text x="280" y="17" fill="#ffffff" font-size="11" font-weight="700" text-anchor="middle">Trisha</text>
                
                <rect x="318" y="0" width="54" height="26" rx="6" fill="#4c1d95" opacity="0.7"/>
                <text x="345" y="17" fill="#ffffff" font-size="11" font-weight="700" text-anchor="middle">Leah</text>
            </g>
            
            <g transform="translate(18, 98)">
                <rect x="0" y="0" width="16" height="12" rx="2" fill="none" stroke="#a78bfa" stroke-width="1.2"/>
                <path d="M0 0 L8 6 L16 0" stroke="#a78bfa" stroke-width="1.2" fill="none"/>
                <text x="24" y="11" fill="#cbd5e1" font-size="12">You may also report the problem through the designated team email:</text>
                <text x="0" y="32" fill="#c084fc" font-size="13" font-weight="600">jbiscarra24113423@student.dmmmsu.edu.ph</text>
            </g>
        </g>
        
        <!-- Checklist Section -->
        <g transform="translate(28, 390)">
            <text x="0" y="16" fill="#ffffff" font-size="13" font-weight="700">When reporting a problem, please feel free to attach:</text>
            
            <!-- 4 Grid Items -->
            <g transform="translate(0, 30)">
                <rect x="0" y="0" width="252" height="38" rx="8" fill="rgba(255,255,255,0.05)"/>
                <text x="38" y="24" fill="#cbd5e1" font-size="12">A video recording of the problem</text>
                
                <rect x="268" y="0" width="252" height="38" rx="8" fill="rgba(255,255,255,0.05)"/>
                <text x="306" y="24" fill="#cbd5e1" font-size="12">A screenshot or photo</text>
                
                <rect x="0" y="46" width="252" height="52" rx="8" fill="rgba(255,255,255,0.05)"/>
                <text x="38" y="24" fill="#cbd5e1" font-size="12">Detailed information about what</text>
                <text x="38" y="40" fill="#cbd5e1" font-size="12">happened</text>
                
                <rect x="268" y="46" width="252" height="52" rx="8" fill="rgba(255,255,255,0.05)"/>
                <text x="306" y="24" fill="#cbd5e1" font-size="12">The steps you took before the</text>
                <text x="306" y="40" fill="#cbd5e1" font-size="12">problem occurred</text>
            </g>
        </g>
        
        <!-- Footer Button -->
        <g transform="translate(28, 596)">
            <text x="0" y="24" fill="#94a3b8" font-size="11">Your feedback will help us identify problems, improve BayanihanHub, and prepare</text>
            <text x="0" y="40" fill="#94a3b8" font-size="11">the platform for its full release.</text>
            
            <rect x="380" y="10" width="140" height="42" rx="8" fill="url(#btnGradient)"/>
            <text x="450" y="36" fill="#ffffff" font-size="14" font-weight="700" text-anchor="middle">Okay</text>
        </g>
    </g>
    
</svg>