<svg xmlns="http://www.w3.org/2000/svg" viewBox="0 0 1440 960" width="1440" height="960">
    <defs>
        <style>
            @import url('https://fonts.googleapis.com/css2?family=Poppins:wght@400;500;600;700;800&amp;display=swap');
            text { font-family: 'Poppins', -apple-system, BlinkMacSystemFont, sans-serif; }
        </style>
    </defs>
    <rect width="1440" height="960" fill="#f1f5f3" />
    
    <!-- Desktop Sidebar (256px, bg-[#0f172a], border-r border-[#1e293b]) -->
    <rect x="0" y="0" width="256" height="960" fill="#0f172a" />
    <line x1="256" y1="0" x2="256" y2="960" stroke="#1e293b" stroke-width="1"/>
    
    <!-- Brand Logo Header -->
    <g transform="translate(20, 20)">
        <rect x="0" y="0" width="32" height="32" rx="6" fill="#2e7d32" />
        <path d="M16 6 L6 16 L10 16 L10 26 L22 26 L22 16 L26 16 Z" fill="#ffffff"/>
        <text x="42" y="16" fill="#ffffff" font-size="14" font-weight="700">Bayanihan Hub</text>
        <text x="42" y="29" fill="#66bb6a" font-size="10" font-weight="700" letter-spacing="1">ADMIN PANEL</text>
    </g>
    <line x1="0" y1="68" x2="256" y2="68" stroke="#1e293b" stroke-width="1"/>
    
    <!-- Nav Items -->
    
        <g transform="translate(16, 80)">
            <rect x="0" y="0" width="224" height="38" rx="8" fill="transparent" />
            <circle cx="18" cy="19" r="6" fill="#94a3b8" opacity="0.7"/>
            <text x="34" y="24" fill="#94a3b8" font-size="12" font-weight="600">Dashboard</text>
        </g>
        
        
        <g transform="translate(16, 124)">
            <rect x="0" y="0" width="224" height="38" rx="8" fill="transparent" />
            <circle cx="18" cy="19" r="6" fill="#94a3b8" opacity="0.7"/>
            <text x="34" y="24" fill="#94a3b8" font-size="12" font-weight="600">Identity & Approvals</text>
        </g>
        <rect x="186" y="133" width="24" height="18" rx="9" fill="#d97706"/><text x="198" y="146" fill="#ffffff" font-size="10" font-weight="800" text-anchor="middle">14</text>
        
        <g transform="translate(16, 168)">
            <rect x="0" y="0" width="224" height="38" rx="8" fill="transparent" />
            <circle cx="18" cy="19" r="6" fill="#94a3b8" opacity="0.7"/>
            <text x="34" y="24" fill="#94a3b8" font-size="12" font-weight="600">Users</text>
        </g>
        
        
        <g transform="translate(16, 212)">
            <rect x="0" y="0" width="224" height="38" rx="8" fill="transparent" />
            <circle cx="18" cy="19" r="6" fill="#94a3b8" opacity="0.7"/>
            <text x="34" y="24" fill="#94a3b8" font-size="12" font-weight="600">Posts</text>
        </g>
        
        
        <g transform="translate(16, 256)">
            <rect x="0" y="0" width="224" height="38" rx="8" fill="#27692a" />
            <circle cx="18" cy="19" r="6" fill="#ffffff" opacity="0.7"/>
            <text x="34" y="24" fill="#ffffff" font-size="12" font-weight="700">Requests</text>
        </g>
        
        
        <g transform="translate(16, 300)">
            <rect x="0" y="0" width="224" height="38" rx="8" fill="transparent" />
            <circle cx="18" cy="19" r="6" fill="#94a3b8" opacity="0.7"/>
            <text x="34" y="24" fill="#94a3b8" font-size="12" font-weight="600">Reports</text>
        </g>
        <rect x="190" y="309" width="20" height="18" rx="9" fill="#ef4444"/><text x="200" y="322" fill="#ffffff" font-size="10" font-weight="800" text-anchor="middle">3</text>
        
        <g transform="translate(16, 344)">
            <rect x="0" y="0" width="224" height="38" rx="8" fill="transparent" />
            <circle cx="18" cy="19" r="6" fill="#94a3b8" opacity="0.7"/>
            <text x="34" y="24" fill="#94a3b8" font-size="12" font-weight="600">Categories</text>
        </g>
        
        
        <g transform="translate(16, 388)">
            <rect x="0" y="0" width="224" height="38" rx="8" fill="transparent" />
            <circle cx="18" cy="19" r="6" fill="#94a3b8" opacity="0.7"/>
            <text x="34" y="24" fill="#94a3b8" font-size="12" font-weight="600">Ratings</text>
        </g>
        
        
        <g transform="translate(16, 432)">
            <rect x="0" y="0" width="224" height="38" rx="8" fill="transparent" />
            <circle cx="18" cy="19" r="6" fill="#94a3b8" opacity="0.7"/>
            <text x="34" y="24" fill="#94a3b8" font-size="12" font-weight="600">Settings</text>
        </g>
        
        
    
    <!-- Sidebar Footer (p-4 border-t border-[#1e293b] bg-slate-950/40) -->
    <g transform="translate(0, 860)">
        <rect x="0" y="0" width="256" height="100" fill="#020617" opacity="0.4"/>
        <line x1="0" y1="0" x2="256" y2="0" stroke="#1e293b" stroke-width="1"/>
        <text x="40" y="32" fill="#94a3b8" font-size="12" font-weight="500">← Back to Main App</text>
        <text x="40" y="68" fill="#f87171" font-size="12" font-weight="600">⎋ Logout (Admin)</text>
    </g>
    
    
    <g transform="translate(288, 36)">
        <text x="0" y="28" fill="#0f172a" font-size="28" font-weight="800">Manage Community Requests</text>
        <text x="0" y="52" fill="#64748b" font-size="14" font-weight="400">Review and manage urgent help requests, calamity appeals, and neighborhood drives</text>
        
        <g transform="translate(980, 10)">
            <rect x="0" y="0" width="140" height="36" rx="6" fill="#ffffff" stroke="#e2e8f0" stroke-width="1"/>
            <text x="70" y="23" fill="#334155" font-size="12" font-weight="600" text-anchor="middle">↻ Refresh Requests</text>
        </g>
        
        <g transform="translate(0, 72)">
            <rect x="0" y="0" width="130" height="32" rx="16" fill="#0f172a"/>
            <text x="65" y="21" fill="#ffffff" font-size="12" font-weight="600" text-anchor="middle">All Requests (28)</text>
            
            <rect x="140" y="0" width="150" height="32" rx="16" fill="#f0fdf4"/>
            <text x="215" y="21" fill="#166534" font-size="12" font-weight="600" text-anchor="middle">Active &amp; Open (25)</text>
            
            <rect x="300" y="0" width="160" height="32" rx="16" fill="#fee2e2"/>
            <text x="380" y="21" fill="#991b1b" font-size="12" font-weight="600" text-anchor="middle">Removed / Cancelled (3)</text>
            
            <rect x="740" y="0" width="380" height="36" rx="8" fill="#ffffff" stroke="#e2e8f0" stroke-width="1"/>
            <text x="756" y="22" fill="#94a3b8" font-size="12">🔍 Search requests by title, category, or requester...</text>
        </g>
        
        <g transform="translate(0, 126)">
            <rect x="0" y="0" width="1120" height="520" rx="10" fill="#ffffff" stroke="#e2e8f0" stroke-width="1"/>
            <rect x="16" y="16" width="1088" height="40" rx="6" fill="#f8fafc"/>
            <text x="32" y="41" fill="#64748b" font-size="11" font-weight="700">REQUEST TITLE</text>
            <text x="360" y="41" fill="#64748b" font-size="11" font-weight="700">REQUESTER</text>
            <text x="530" y="41" fill="#64748b" font-size="11" font-weight="700">URGENCY</text>
            <text x="680" y="41" fill="#64748b" font-size="11" font-weight="700">NEEDED BEFORE</text>
            <text x="830" y="41" fill="#64748b" font-size="11" font-weight="700">STATUS</text>
            <text x="980" y="41" fill="#64748b" font-size="11" font-weight="700">ACTIONS</text>
            
            <!-- Row 1 -->
            <line x1="16" y1="116" x2="1104" y2="116" stroke="#f1f5f9" stroke-width="1"/>
            <text x="32" y="92" fill="#0f172a" font-size="13" font-weight="700">Emergency Infant Milk &amp; First Aid Kits</text>
            <text x="32" y="108" fill="#94a3b8" font-size="11">Category: Calamity Relief • 3 Families affected</text>
            
            <text x="360" y="100" fill="#334155" font-size="12">Juan Dela Cruz</text>
            
            <rect x="530" y="88" width="84" height="22" rx="4" fill="#fee2e2"/>
            <text x="572" y="103" fill="#991b1b" font-size="11" font-weight="700" text-anchor="middle">CRITICAL</text>
            
            <text x="680" y="100" fill="#334155" font-size="12">Sept 18, 2026</text>
            
            <rect x="830" y="88" width="70" height="22" rx="11" fill="#dcfce7"/>
            <text x="865" y="103" fill="#166534" font-size="11" font-weight="700" text-anchor="middle">Open</text>
            
            <rect x="960" y="84" width="94" height="28" rx="6" fill="#ffffff" stroke="#dc2626" stroke-width="1"/>
            <text x="1007" y="102" fill="#dc2626" font-size="11" font-weight="700" text-anchor="middle">Cancel Request</text>
            
            <!-- Row 2 -->
            <line x1="16" y1="172" x2="1104" y2="172" stroke="#f1f5f9" stroke-width="1"/>
            <text x="32" y="148" fill="#0f172a" font-size="13" font-weight="700">Roofing Galvanized Iron Sheets (Typhoon Repair)</text>
            <text x="32" y="164" fill="#94a3b8" font-size="11">Category: Housing Support • 1 Household</text>
            
            <text x="360" y="156" fill="#334155" font-size="12">Maria Santos</text>
            
            <rect x="530" y="144" width="70" height="22" rx="4" fill="#fef3c7"/>
            <text x="565" y="159" fill="#92400e" font-size="11" font-weight="700" text-anchor="middle">HIGH</text>
            
            <text x="680" y="156" fill="#334155" font-size="12">Sept 24, 2026</text>
            
            <rect x="830" y="144" width="70" height="22" rx="11" fill="#dcfce7"/>
            <text x="865" y="159" fill="#166534" font-size="11" font-weight="700" text-anchor="middle">Open</text>
            
            <rect x="960" y="140" width="94" height="28" rx="6" fill="#ffffff" stroke="#dc2626" stroke-width="1"/>
            <text x="1007" y="158" fill="#dc2626" font-size="11" font-weight="700" text-anchor="middle">Cancel Request</text>
        </g>
    </g>
    
</svg>